<?xml version="1.0" encoding="utf-8"?>
<!-- Generator: Adobe Illustrator 23.1.1, SVG Export Plug-In . SVG Version: 6.00 Build 0)  -->
<svg version="1.1" id="Layer_1" xmlns="http://www.w3.org/2000/svg" xmlns:xlink="http://www.w3.org/1999/xlink" x="0px" y="0px"
	 viewBox="0 0 188.3 50" style="enable-background:new 0 0 188.3 50;" xml:space="preserve">
<style type="text/css">
	.st0{fill:#FFFFFF;}
</style>
<g>
	<g>
		<path class="st0" d="M71.3,49.7V33.1l-7.7,16.5h-5.9l-7.5-16.5v16.5h-5.7V24.9h7.7l8.5,18.9l8.7-18.9H77v24.8H71.3z"/>
		<path class="st0" d="M95.8,49.7H80V24.9h15.6c5.7,0,9,1.6,10.6,4.4c1.2,1.8,1.6,4,1.6,7.6c0,3.9-0.4,6.1-1.5,8
			C104.7,47.9,101.4,49.7,95.8,49.7z M101.9,37c0-2.1-0.3-3.9-1-4.8c-1.1-1.7-2.9-2.5-6.2-2.5H86v15h8.6c3.4,0,5.3-0.8,6.4-2.4
			C101.7,41.3,101.9,39.3,101.9,37z"/>
		<path class="st0" d="M125.2,50c-8.7,0-13.1-2.8-13.4-7.9h2.8c0.2,3.7,4.1,5.4,10.6,5.4c6.9,0,9.3-1.8,9.3-4.5c0-2.9-2.1-4.1-9.9-5
			c-5.9-0.7-12.3-1.4-12.3-6.8c0-3.6,3.1-6.7,11.8-6.7c8.5,0,11.9,3.5,12.7,7.3h-2.9c-0.7-2.9-3.5-4.8-9.9-4.8
			c-6.3,0-8.9,1.7-8.9,4.1c0,3.4,4.9,3.9,10.1,4.4c7.5,0.8,12.1,2.1,12.1,7.2C137.3,47.2,133.8,50,125.2,50z"/>
		<path class="st0" d="M151.9,50c-7.3,0-11.6-2.8-11.6-9.2c0-5.8,4.3-8.9,11.5-8.9c8.1,0,11.7,4,11.4,10h-20.3c0.1,3.8,3.5,6,9.2,6
			c5.9,0,7.9-2.2,8.3-3.5h2.6C162.2,47.2,159.3,50,151.9,50z M151.7,34c-5.8,0-8.9,2.3-8.9,5.8h17.7C160.5,36.4,157.9,34,151.7,34z"
			/>
		<path class="st0" d="M185.7,38.5c-0.1-0.8-0.3-1.4-0.9-2c-1.2-1.4-3.7-2.4-7.4-2.4c-3.8,0-6.4,0.9-7.9,2.7c-0.9,1-1.2,2.4-1.2,4.2
			c0,1.9,0.4,3.3,1.3,4.3c1.4,1.7,4.1,2.5,7.9,2.5c3.7,0,5.9-0.7,7.2-1.9c0.6-0.6,1-1.5,1.1-2.2h2.6c-0.2,1.3-0.7,2.6-1.6,3.5
			C185,49,182,50,177.3,50c-4.8,0-8.1-1.1-9.9-3.3c-1.2-1.4-1.8-3.3-1.8-5.8c0-2.3,0.6-4.2,1.7-5.6c1.9-2.2,5.3-3.5,9.9-3.5
			c5.3,0,8.4,1.5,9.8,3.5c0.8,1,1,2.1,1.1,3.2H185.7z"/>
	</g>
	<path class="st0" d="M31,44.1H2c-1.1,0-2,0.9-2,2v3.5h32.9V46C32.9,45,32,44.1,31,44.1z"/>
	<path class="st0" d="M19.5,19.2l0.3,0c0.9-0.1,1.6-0.4,2.3-0.9l0,0l3,2.5c0.3,0.3,0.7,0.5,1.1,0.6c1.2,0.3,2.4-0.2,3-1.2l1.8-1.9
		c0.3-0.3,0.3-0.7,0.1-1l-5.4-7.5C25.2,9.3,25,8.6,24.8,8c-0.2-1.1-0.9-2-1.9-2.5l-3.7-1.9l2.5-2.5l0,0c0,0-0.1-0.1-0.1-0.1
		c-0.6-0.6-1.4-1-2.3-1c-0.6,0-1.1,0.1-1.6,0.4l0,0l-7.7,3.3l0,0c-4.7,2-8,6.7-8,12.1v2L5.9,14v2.7L2,20.5v2.7l3.8-3.8v2.7L2,25.9
		v2.7l3.8-3.8v2.7L2,31.4v1.7h3.9L2,37V42H31v-0.7c0-7.7-3.2-12.2-6.5-14.4c-2.4-1.6-8.1-3.3-8.1-8.4c0.8,0.5,1.8,0.8,2.8,0.8
		C19.3,19.2,19.4,19.2,19.5,19.2z"/>
</g>
</svg>
